<?xml version="1.0" standalone="no"?>
<!DOCTYPE svg PUBLIC "-//W3C//DTD SVG 1.1//EN" "http://www.w3.org/Graphics/SVG/1.1/DTD/svg11.dtd" >
<svg xmlns="http://www.w3.org/2000/svg">
<metadata>Generated by IcoMoon</metadata>
<defs>
<font id="quicks" horiz-adv-x="1024">
<font-face units-per-em="1024" ascent="960" descent="-64" />
<missing-glyph horiz-adv-x="1024" />
<glyph unicode="&#x20;" horiz-adv-x="512" d="" />
<glyph unicode="&#xe900;" glyph-name="copy" horiz-adv-x="2048" d="M925.579 235.621h-300.148c-123.811 0-225.112 101.302-225.112 225.114s101.301 225.112 225.112 225.112h300.148v150.075h-300.148c-207.103 0-375.186-168.083-375.186-375.187s168.084-375.187 375.186-375.187h300.148v150.073zM1375.806 835.92h-300.154v-150.075h300.154c123.807 0 225.11-101.301 225.11-225.112s-101.303-225.111-225.11-225.111h-300.154v-150.073h300.154c207.105 0 375.183 168.082 375.183 375.184s-168.078 375.187-375.183 375.187zM1300.769 535.771h-600.296v-150.075h600.296v150.075z" />
<glyph unicode="&#xe902;" glyph-name="answer-solid" horiz-adv-x="986" d="M684.074 924.875h-620.861c-26.267 0-47.759-21.491-47.759-47.759v-668.619l191.034 191.033h477.586c26.267 0 47.76 21.493 47.76 47.76v429.826c0 26.267-21.493 47.759-47.76 47.759zM636.317 829.361v-334.31h-469.469l-55.877-55.876v390.186h525.346zM827.35 733.84h95.516c26.267 0 47.76-21.491 47.76-47.759v-716.38l-191.037 191.037h-525.344c-26.267 0-47.759 21.489-47.759 47.756v95.52h620.863v429.826z" />
<glyph unicode="&#xe903;" glyph-name="arrow-down" d="M982.552 467.992l-86.455 86.457-342.772-342.155v746.241h-122.635v-746.241l-342.155 342.768-87.072-87.070 490.543-490.545 490.545 490.545z" />
<glyph unicode="&#xe904;" glyph-name="arrow-left" d="M1023.429 529.412h-746.129l342.717 342.717-87.060 86.445-490.47-490.47 490.47-490.472 86.445 86.445-342.102 342.718h746.129v122.616z" />
<glyph unicode="&#xe906;" glyph-name="avatar" d="M512 960c141.44 0 256-114.56 256-256s-114.56-256-256-256c-141.44 0-256 114.56-256 256s114.56 256 256 256zM640 704c0 70.4-57.6 128-128 128s-128-57.6-128-128c0-70.4 57.6-128 128-128s128 57.6 128 128zM896 64c-12.8 45.44-211.2 128-384 128-172.16 0-369.28-81.92-384-128h768zM0 64c0 170.24 341.12 256 512 256s512-85.76 512-256v-128h-1024v128z" />
<glyph unicode="&#xe907;" glyph-name="bag" horiz-adv-x="1065" d="M787.821 748.135h154.497c57.168 0 103.002-45.834 103.002-102.999v-566.493c0-57.164-45.834-102.998-103.002-102.998h-823.989c-57.165 0-102.999 45.834-102.999 102.998v566.493c0 57.165 45.834 102.999 102.999 102.999h154.498v102.999c0 57.164 45.834 102.999 102.999 102.999h308.997c57.164 0 102.998-45.835 102.998-102.999v-102.999zM684.823 851.133h-308.996v-102.999h308.996v102.999zM942.318 78.643v102.998h-823.989v-102.998h823.989zM118.328 336.138h823.989v308.998h-154.497v-102.998h-102.998v102.998h-308.997v-102.998h-102.999v102.998h-154.498v-308.998z" />
<glyph unicode="&#xe908;" glyph-name="bolt" horiz-adv-x="576" d="M398.166 949.252c29.411-19.607 37.357-59.342 17.75-88.752l-232.332-348.5h328.415c23.603 0 45.29-12.989 56.429-33.802 11.136-20.81 9.914-46.061-3.178-65.699l-298.667-448c-19.606-29.408-59.342-37.357-88.752-17.75s-37.357 59.344-17.75 88.752l232.334 348.499h-328.416c-23.603 0-45.29 12.992-56.427 33.802s-9.917 46.061 3.176 65.699l298.667 448.001c19.605 29.41 59.343 37.357 88.751 17.75z" />
<glyph unicode="&#xe909;" glyph-name="bookmark" horiz-adv-x="805" d="M695.040 950.589c47.777 0 86.872-41.383 86.872-91.963v-735.706l-86.872 45.981v597.761c0 50.58-39.095 91.963-86.875 91.963h-434.36c0 50.58 38.658 91.963 86.438 91.963h434.798zM521.3 674.7h-434.363v-596.382l217.181 98.86 217.182-98.86v596.382zM86.935 766.663h434.362c47.781 0 86.872-41.383 86.872-91.963v-735.705l-304.053 137.944-304.053-137.944v735.705c0 50.58 39.093 91.963 86.872 91.963z" />
<glyph unicode="&#xe90b;" glyph-name="book" horiz-adv-x="1331" d="M159.29 925.887h1023.998c62.582 0 113.782-51.2 113.782-113.778v-739.554c0-62.577-51.2-113.777-113.782-113.777h-1023.998c-62.578 0-113.778 51.2-113.778 113.777v739.554c0 62.578 51.2 113.778 113.778 113.778zM159.29 812.11v-739.554h455.11v739.554h-455.11zM1183.288 72.556v739.554h-455.112v-739.554h455.112zM1126.4 612.999v-85.334h-341.33v85.334h341.33zM785.070 470.776v-85.332h341.33v85.332h-341.33zM1126.4 328.556v-85.335h-341.33v85.335h341.33z" />
<glyph unicode="&#xe90c;" glyph-name="checkbox" d="M896.325 940.752h-772.492c-60.696 0-110.356-49.66-110.356-110.356v-772.493c0-60.694 49.66-110.354 110.356-110.354h772.492c60.694 0 110.354 49.66 110.354 110.354v772.493c0 60.696-49.66 110.356-110.354 110.356zM896.325 57.904h-772.492v772.493h772.492v-772.493zM762.792 688.037l77.802-78.353-441.424-441.423-220.71 220.16 78.353 77.798 142.358-141.806 363.622 363.623z" />
<glyph unicode="&#xe90d;" glyph-name="checkbox-blank" d="M129.606 940.752h772.491c60.698 0 110.358-49.66 110.358-110.356v-772.493c0-60.694-49.66-110.354-110.358-110.354h-772.491c-60.696 0-110.356 49.66-110.356 110.354v772.493c0 60.696 49.66 110.356 110.356 110.356zM902.096 57.904v772.493h-772.491v-772.493h772.491z" />
<glyph unicode="&#xe90e;" glyph-name="clock" d="M521.878 939.731c-273.342 0-494.69-221.844-494.69-495.185 0-273.345 221.348-495.187 494.69-495.187 273.841 0 495.683 221.842 495.683 495.187 0 273.341-221.842 495.185-495.683 495.185zM522.386 48.396c-218.874 0-396.151 177.274-396.151 396.146 0 218.874 177.277 396.151 396.151 396.151 218.872 0 396.146-177.277 396.146-396.151 0-218.872-177.274-396.146-396.146-396.146zM472.856 692.137h74.279v-259.974l222.834-132.214-37.14-60.908-259.974 155.983v297.113z" />
<glyph unicode="&#xe90f;" glyph-name="cross" d="M1024 856.869l-103.131 103.131-408.869-408.869-408.869 408.869-103.131-103.131 408.869-408.869-408.869-408.869 103.131-103.131 408.869 408.869 408.869-408.869 103.131 103.131-408.869 408.869 408.869 408.869z" />
<glyph unicode="&#xe910;" glyph-name="desc" horiz-adv-x="853" d="M513.994 917.083l284.447-284.444v-568.889c0-52.15-42.667-94.817-94.817-94.817h-569.364c-52.148 0-94.34 42.667-94.34 94.817v758.519c0 52.148 42.667 94.815 94.815 94.815h379.259zM608.808 443.009h-379.258v-94.815h379.258v94.815zM608.808 253.377h-379.258v-94.811h379.258v94.811zM134.735 63.75h568.889v521.482h-237.038v237.037h-331.852v-758.519z" />
<glyph unicode="&#xe911;" glyph-name="pencil" horiz-adv-x="1069" d="M859.679 960c14.554 0 28.547-5.038 39.745-16.234l130.987-130.988c21.829-21.831 21.829-57.097 0-78.928l-102.44-102.439-209.916 209.916 102.44 102.439c10.636 10.636 25.19 16.234 39.184 16.234zM658.169 623.015l51.498-51.5-507.157-507.159h-51.499v51.503l507.158 507.156zM39.054 162.317l619.111 619.114 209.92-209.916-619.114-619.114h-209.916v209.916z" />
<glyph unicode="&#xe912;" glyph-name="plus" horiz-adv-x="1081" d="M1027.658 371.484h-429.164v-429.164h-143.055v429.164h-429.162v143.052h429.162v429.162h143.055v-429.162h429.164v-143.052z" />
<glyph unicode="&#xe913;" glyph-name="search" horiz-adv-x="1057" d="M699.808 333.104h45.023l284.385-284.949-84.916-84.916-284.953 284.381v45.023l-15.386 15.958c-64.971-55.851-149.316-89.478-241.073-89.478-204.594 0-370.436 165.845-370.436 370.44s165.842 370.437 370.436 370.437c204.599 0 370.44-165.842 370.44-370.437 0-91.757-33.624-176.102-89.474-241.069l15.955-15.39zM146.432 589.56c0-141.903 114.551-256.456 256.456-256.456 141.907 0 256.459 114.553 256.459 256.456 0 141.908-114.553 256.458-256.459 256.458s-256.456-114.551-256.456-256.458z" />
<glyph unicode="&#xe914;" glyph-name="star" horiz-adv-x="1109" d="M694.682 604.869l385.707-33.26-292.365-253.742 87.441-377.126-331.529 200.098-331.527-200.098 87.978 377.126-292.903 253.742 385.709 32.723 150.743 355.668 150.746-355.131zM342.23 119.377l201.706 121.775 202.244-122.308-53.645 229.598 178.099 154.5-234.965 20.386-91.733 216.725-91.196-216.192-234.967-20.382 178.102-154.5-53.645-229.602z" />
<glyph unicode="&#xe915;" glyph-name="more" horiz-adv-x="3584" d="M1445.823 561.079c-64.439 0-117.161-52.723-117.161-117.162s52.723-117.162 117.161-117.162c64.439 0 117.162 52.723 117.162 117.162s-52.723 117.162-117.162 117.162zM2148.795 561.079c-64.446 0-117.158-52.723-117.158-117.162s52.716-117.162 117.158-117.162c64.432 0 117.158 52.723 117.158 117.162s-52.726 117.162-117.158 117.162zM1680.147 443.917c0 64.439 52.723 117.162 117.158 117.162 64.446 0 117.158-52.723 117.158-117.162s-52.716-117.162-117.158-117.162c-64.435 0-117.158 52.723-117.158 117.162z" />
<glyph unicode="&#xe916;" glyph-name="menu" horiz-adv-x="1682" d="M305.532 383.858h117.361v119.926h-117.361v-119.926zM305.532 144.004h117.361v119.925h-117.361v-119.925zM305.532 623.712h117.361v119.927h-117.361v-119.927zM540.264 383.858h821.562v119.926h-821.562v-119.926zM540.264 144.004h821.562v119.925h-821.562v-119.925zM540.264 743.639v-119.927h821.562v119.927h-821.562z" />
</font>
</defs>
</svg>
